<mxfile host="app.diagrams.net" modified="2022-08-29T15:31:33.409Z" agent="5.0 (X11; Linux x86_64) AppleWebKit/537.36 (KHTML, like Gecko) Chrome/104.0.5112.102 Safari/537.36" etag="AGMdcNJi9UioGk3hUSFt" version="20.2.7" type="github">
  <diagram id="XXAsYTqmDj53nG6RouVj" name="BLOG UI">
    <mxGraphModel dx="1108" dy="525" grid="1" gridSize="10" guides="1" tooltips="1" connect="1" arrows="1" fold="1" page="1" pageScale="1" pageWidth="827" pageHeight="1169" math="0" shadow="0">
      <root>
        <mxCell id="0" />
        <mxCell id="1" parent="0" />
        <mxCell id="Bto4KqDg77YO_STwbQzX-3" value="" style="whiteSpace=wrap;html=1;" parent="1" vertex="1">
          <mxGeometry x="9" y="30" width="810" height="100" as="geometry" />
        </mxCell>
        <mxCell id="Bto4KqDg77YO_STwbQzX-5" value="&lt;b&gt;LOGO&lt;/b&gt;" style="whiteSpace=wrap;html=1;aspect=fixed;" parent="1" vertex="1">
          <mxGeometry x="20" y="40" width="80" height="80" as="geometry" />
        </mxCell>
        <mxCell id="Bto4KqDg77YO_STwbQzX-7" value="&lt;b&gt;HOME&lt;/b&gt;" style="text;html=1;resizable=0;autosize=1;align=center;verticalAlign=middle;points=[];fillColor=none;strokeColor=none;rounded=0;" parent="1" vertex="1">
          <mxGeometry x="110" y="65" width="60" height="30" as="geometry" />
        </mxCell>
        <mxCell id="Bto4KqDg77YO_STwbQzX-8" value="&lt;b&gt;BLOGS&lt;/b&gt;" style="text;html=1;resizable=0;autosize=1;align=center;verticalAlign=middle;points=[];fillColor=none;strokeColor=none;rounded=0;" parent="1" vertex="1">
          <mxGeometry x="155" y="65" width="70" height="30" as="geometry" />
        </mxCell>
        <mxCell id="Bto4KqDg77YO_STwbQzX-10" value="" style="whiteSpace=wrap;html=1;" parent="1" vertex="1">
          <mxGeometry x="430" y="70" width="280" height="20" as="geometry" />
        </mxCell>
        <mxCell id="Bto4KqDg77YO_STwbQzX-11" value="&lt;b&gt;Search&lt;/b&gt;" style="text;html=1;resizable=0;autosize=1;align=center;verticalAlign=middle;points=[];fillColor=none;strokeColor=none;rounded=0;" parent="1" vertex="1">
          <mxGeometry x="431" y="65" width="60" height="30" as="geometry" />
        </mxCell>
        <mxCell id="Bto4KqDg77YO_STwbQzX-12" value="" style="ellipse;whiteSpace=wrap;html=1;aspect=fixed;" parent="1" vertex="1">
          <mxGeometry x="740" y="60" width="40" height="40" as="geometry" />
        </mxCell>
        <mxCell id="Bto4KqDg77YO_STwbQzX-14" value="" style="whiteSpace=wrap;html=1;" parent="1" vertex="1">
          <mxGeometry x="9" y="130" width="191" height="280" as="geometry" />
        </mxCell>
        <mxCell id="Bto4KqDg77YO_STwbQzX-16" value="CREATE BLOG" style="text;html=1;resizable=0;autosize=1;align=center;verticalAlign=middle;points=[];fillColor=none;strokeColor=none;rounded=0;" parent="1" vertex="1">
          <mxGeometry x="25" y="150" width="110" height="30" as="geometry" />
        </mxCell>
        <mxCell id="Bto4KqDg77YO_STwbQzX-18" value="BLOGS LIKED" style="text;html=1;resizable=0;autosize=1;align=center;verticalAlign=middle;points=[];fillColor=none;strokeColor=none;rounded=0;" parent="1" vertex="1">
          <mxGeometry x="25" y="185" width="100" height="30" as="geometry" />
        </mxCell>
        <mxCell id="Bto4KqDg77YO_STwbQzX-19" value="BLOGS POSTED" style="text;html=1;resizable=0;autosize=1;align=center;verticalAlign=middle;points=[];fillColor=none;strokeColor=none;rounded=0;" parent="1" vertex="1">
          <mxGeometry x="20" y="215" width="120" height="30" as="geometry" />
        </mxCell>
        <mxCell id="Bto4KqDg77YO_STwbQzX-20" value="&lt;b&gt;ABOUT ME&lt;/b&gt;" style="text;html=1;resizable=0;autosize=1;align=center;verticalAlign=middle;points=[];fillColor=none;strokeColor=none;rounded=0;" parent="1" vertex="1">
          <mxGeometry x="210" y="65" width="90" height="30" as="geometry" />
        </mxCell>
        <mxCell id="Bto4KqDg77YO_STwbQzX-21" value="PROFILE NAME" style="text;html=1;resizable=0;autosize=1;align=center;verticalAlign=middle;points=[];fillColor=none;strokeColor=none;rounded=0;" parent="1" vertex="1">
          <mxGeometry x="25" y="340" width="110" height="30" as="geometry" />
        </mxCell>
        <mxCell id="Bto4KqDg77YO_STwbQzX-22" value="LATEST BLOGS" style="text;html=1;resizable=0;autosize=1;align=center;verticalAlign=middle;points=[];fillColor=none;strokeColor=none;rounded=0;" parent="1" vertex="1">
          <mxGeometry x="25" y="245" width="110" height="30" as="geometry" />
        </mxCell>
        <mxCell id="Bto4KqDg77YO_STwbQzX-23" value="BLOGS SUBSCRIBED" style="text;html=1;resizable=0;autosize=1;align=center;verticalAlign=middle;points=[];fillColor=none;strokeColor=none;rounded=0;" parent="1" vertex="1">
          <mxGeometry x="20" y="275" width="150" height="30" as="geometry" />
        </mxCell>
        <mxCell id="Bto4KqDg77YO_STwbQzX-24" value="ACCOUNT SETTINGS" style="text;html=1;resizable=0;autosize=1;align=center;verticalAlign=middle;points=[];fillColor=none;strokeColor=none;rounded=0;" parent="1" vertex="1">
          <mxGeometry x="20" y="305" width="150" height="30" as="geometry" />
        </mxCell>
        <mxCell id="Bto4KqDg77YO_STwbQzX-26" value="" style="whiteSpace=wrap;html=1;" parent="1" vertex="1">
          <mxGeometry x="205" y="130" width="615" height="100" as="geometry" />
        </mxCell>
        <mxCell id="Bto4KqDg77YO_STwbQzX-27" value="HTML" style="text;html=1;resizable=0;autosize=1;align=center;verticalAlign=middle;points=[];fillColor=none;strokeColor=none;rounded=0;" parent="1" vertex="1">
          <mxGeometry x="245" y="150" width="60" height="30" as="geometry" />
        </mxCell>
        <mxCell id="Bto4KqDg77YO_STwbQzX-28" value="CSS" style="text;html=1;resizable=0;autosize=1;align=center;verticalAlign=middle;points=[];fillColor=none;strokeColor=none;rounded=0;" parent="1" vertex="1">
          <mxGeometry x="330" y="150" width="50" height="30" as="geometry" />
        </mxCell>
        <mxCell id="Bto4KqDg77YO_STwbQzX-29" value="JAVSCRIPT" style="text;html=1;resizable=0;autosize=1;align=center;verticalAlign=middle;points=[];fillColor=none;strokeColor=none;rounded=0;" parent="1" vertex="1">
          <mxGeometry x="395" y="150" width="90" height="30" as="geometry" />
        </mxCell>
        <mxCell id="Bto4KqDg77YO_STwbQzX-30" value="REACTJS" style="text;html=1;resizable=0;autosize=1;align=center;verticalAlign=middle;points=[];fillColor=none;strokeColor=none;rounded=0;" parent="1" vertex="1">
          <mxGeometry x="510" y="150" width="80" height="30" as="geometry" />
        </mxCell>
        <mxCell id="Bto4KqDg77YO_STwbQzX-31" value="SORT BY" style="whiteSpace=wrap;html=1;" parent="1" vertex="1">
          <mxGeometry x="670" y="140" width="120" height="60" as="geometry" />
        </mxCell>
        <mxCell id="Bto4KqDg77YO_STwbQzX-32" value="" style="whiteSpace=wrap;html=1;" parent="1" vertex="1">
          <mxGeometry x="210" y="240" width="610" height="170" as="geometry" />
        </mxCell>
        <mxCell id="Bto4KqDg77YO_STwbQzX-33" value="BLOG TITLE" style="whiteSpace=wrap;html=1;" parent="1" vertex="1">
          <mxGeometry x="225" y="260" width="120" height="120" as="geometry" />
        </mxCell>
        <mxCell id="Bto4KqDg77YO_STwbQzX-34" value="BLOG IMAGE" style="whiteSpace=wrap;html=1;" parent="1" vertex="1">
          <mxGeometry x="225" y="260" width="120" height="45" as="geometry" />
        </mxCell>
        <mxCell id="Bto4KqDg77YO_STwbQzX-35" value="AUTHOR NAME" style="text;html=1;resizable=0;autosize=1;align=center;verticalAlign=middle;points=[];fillColor=none;strokeColor=none;rounded=0;" parent="1" vertex="1">
          <mxGeometry x="230" y="340" width="110" height="30" as="geometry" />
        </mxCell>
        <mxCell id="Bto4KqDg77YO_STwbQzX-36" value="BLOG TITLE" style="whiteSpace=wrap;html=1;" parent="1" vertex="1">
          <mxGeometry x="365" y="260" width="120" height="120" as="geometry" />
        </mxCell>
        <mxCell id="Bto4KqDg77YO_STwbQzX-37" value="BLOG IMAGE" style="whiteSpace=wrap;html=1;" parent="1" vertex="1">
          <mxGeometry x="365" y="260" width="120" height="45" as="geometry" />
        </mxCell>
        <mxCell id="Bto4KqDg77YO_STwbQzX-38" value="AUTHOR NAME" style="text;html=1;resizable=0;autosize=1;align=center;verticalAlign=middle;points=[];fillColor=none;strokeColor=none;rounded=0;" parent="1" vertex="1">
          <mxGeometry x="375" y="340" width="110" height="30" as="geometry" />
        </mxCell>
        <mxCell id="Bto4KqDg77YO_STwbQzX-44" value="" style="whiteSpace=wrap;html=1;" parent="1" vertex="1">
          <mxGeometry x="14" y="430" width="800" height="430" as="geometry" />
        </mxCell>
        <mxCell id="Bto4KqDg77YO_STwbQzX-45" value="BLOG IMAGE" style="whiteSpace=wrap;html=1;" parent="1" vertex="1">
          <mxGeometry x="35" y="460" width="515" height="110" as="geometry" />
        </mxCell>
        <mxCell id="Bto4KqDg77YO_STwbQzX-46" value="BLOG TITLE" style="text;html=1;resizable=0;autosize=1;align=center;verticalAlign=middle;points=[];fillColor=none;strokeColor=none;rounded=0;" parent="1" vertex="1">
          <mxGeometry x="30" y="580" width="90" height="30" as="geometry" />
        </mxCell>
        <mxCell id="Bto4KqDg77YO_STwbQzX-47" value="AUTHOR NAME" style="text;html=1;resizable=0;autosize=1;align=center;verticalAlign=middle;points=[];fillColor=none;strokeColor=none;rounded=0;" parent="1" vertex="1">
          <mxGeometry x="20" y="610" width="110" height="30" as="geometry" />
        </mxCell>
        <mxCell id="Bto4KqDg77YO_STwbQzX-48" value="EDIT" style="text;html=1;resizable=0;autosize=1;align=center;verticalAlign=middle;points=[];fillColor=none;strokeColor=none;rounded=0;" parent="1" vertex="1">
          <mxGeometry x="430" y="580" width="50" height="30" as="geometry" />
        </mxCell>
        <mxCell id="Bto4KqDg77YO_STwbQzX-49" value="DELETE" style="text;html=1;resizable=0;autosize=1;align=center;verticalAlign=middle;points=[];fillColor=none;strokeColor=none;rounded=0;" parent="1" vertex="1">
          <mxGeometry x="480" y="580" width="70" height="30" as="geometry" />
        </mxCell>
        <mxCell id="Bto4KqDg77YO_STwbQzX-50" value="BLOG CONTENT" style="whiteSpace=wrap;html=1;" parent="1" vertex="1">
          <mxGeometry x="44.5" y="650" width="505.5" height="60" as="geometry" />
        </mxCell>
        <mxCell id="Bto4KqDg77YO_STwbQzX-51" value="TIMESTAMP" style="text;html=1;resizable=0;autosize=1;align=center;verticalAlign=middle;points=[];fillColor=none;strokeColor=none;rounded=0;" parent="1" vertex="1">
          <mxGeometry x="440" y="610" width="90" height="30" as="geometry" />
        </mxCell>
        <mxCell id="Bto4KqDg77YO_STwbQzX-52" value="" style="whiteSpace=wrap;html=1;" parent="1" vertex="1">
          <mxGeometry x="580" y="460" width="220" height="350" as="geometry" />
        </mxCell>
        <mxCell id="Bto4KqDg77YO_STwbQzX-53" value="RECOMMENDED BLOGS" style="text;html=1;resizable=0;autosize=1;align=center;verticalAlign=middle;points=[];fillColor=none;strokeColor=none;rounded=0;" parent="1" vertex="1">
          <mxGeometry x="600" y="480" width="160" height="30" as="geometry" />
        </mxCell>
        <mxCell id="Bto4KqDg77YO_STwbQzX-54" value="BLOG 1" style="whiteSpace=wrap;html=1;" parent="1" vertex="1">
          <mxGeometry x="610" y="520" width="120" height="110" as="geometry" />
        </mxCell>
        <mxCell id="Bto4KqDg77YO_STwbQzX-55" value="CATEGORIES" style="text;html=1;resizable=0;autosize=1;align=center;verticalAlign=middle;points=[];fillColor=none;strokeColor=none;rounded=0;" parent="1" vertex="1">
          <mxGeometry x="600" y="650" width="100" height="30" as="geometry" />
        </mxCell>
        <mxCell id="Bto4KqDg77YO_STwbQzX-56" value="HTML" style="text;html=1;resizable=0;autosize=1;align=center;verticalAlign=middle;points=[];fillColor=none;strokeColor=none;rounded=0;" parent="1" vertex="1">
          <mxGeometry x="590" y="685" width="60" height="30" as="geometry" />
        </mxCell>
        <mxCell id="Bto4KqDg77YO_STwbQzX-58" value="CSS" style="text;html=1;resizable=0;autosize=1;align=center;verticalAlign=middle;points=[];fillColor=none;strokeColor=none;rounded=0;" parent="1" vertex="1">
          <mxGeometry x="645" y="685" width="50" height="30" as="geometry" />
        </mxCell>
        <mxCell id="Bto4KqDg77YO_STwbQzX-59" value="JS" style="text;html=1;resizable=0;autosize=1;align=center;verticalAlign=middle;points=[];fillColor=none;strokeColor=none;rounded=0;" parent="1" vertex="1">
          <mxGeometry x="700" y="685" width="40" height="30" as="geometry" />
        </mxCell>
        <mxCell id="Bto4KqDg77YO_STwbQzX-60" value="REACT" style="text;html=1;resizable=0;autosize=1;align=center;verticalAlign=middle;points=[];fillColor=none;strokeColor=none;rounded=0;" parent="1" vertex="1">
          <mxGeometry x="730" y="685" width="60" height="30" as="geometry" />
        </mxCell>
        <mxCell id="Bto4KqDg77YO_STwbQzX-61" value="FOLLOW US" style="text;html=1;resizable=0;autosize=1;align=center;verticalAlign=middle;points=[];fillColor=none;strokeColor=none;rounded=0;" parent="1" vertex="1">
          <mxGeometry x="605" y="730" width="90" height="30" as="geometry" />
        </mxCell>
        <mxCell id="Bto4KqDg77YO_STwbQzX-62" value="FB" style="text;html=1;resizable=0;autosize=1;align=center;verticalAlign=middle;points=[];fillColor=none;strokeColor=none;rounded=0;" parent="1" vertex="1">
          <mxGeometry x="610" y="760" width="40" height="30" as="geometry" />
        </mxCell>
        <mxCell id="Bto4KqDg77YO_STwbQzX-63" value="YT" style="text;html=1;resizable=0;autosize=1;align=center;verticalAlign=middle;points=[];fillColor=none;strokeColor=none;rounded=0;" parent="1" vertex="1">
          <mxGeometry x="645" y="760" width="40" height="30" as="geometry" />
        </mxCell>
        <mxCell id="Bto4KqDg77YO_STwbQzX-64" value="TW" style="text;html=1;resizable=0;autosize=1;align=center;verticalAlign=middle;points=[];fillColor=none;strokeColor=none;rounded=0;" parent="1" vertex="1">
          <mxGeometry x="685" y="760" width="40" height="30" as="geometry" />
        </mxCell>
        <mxCell id="Bto4KqDg77YO_STwbQzX-65" value="IS" style="text;html=1;resizable=0;autosize=1;align=center;verticalAlign=middle;points=[];fillColor=none;strokeColor=none;rounded=0;" parent="1" vertex="1">
          <mxGeometry x="730" y="760" width="30" height="30" as="geometry" />
        </mxCell>
        <mxCell id="Bto4KqDg77YO_STwbQzX-66" value="SIngle Blog Page" style="text;html=1;resizable=0;autosize=1;align=center;verticalAlign=middle;points=[];fillColor=none;strokeColor=none;rounded=0;" parent="1" vertex="1">
          <mxGeometry x="5" y="810" width="120" height="30" as="geometry" />
        </mxCell>
        <mxCell id="Bto4KqDg77YO_STwbQzX-67" value="" style="whiteSpace=wrap;html=1;" parent="1" vertex="1">
          <mxGeometry x="19" y="890" width="795" height="410" as="geometry" />
        </mxCell>
        <mxCell id="Bto4KqDg77YO_STwbQzX-68" value="USERNAME" style="text;html=1;resizable=0;autosize=1;align=center;verticalAlign=middle;points=[];fillColor=none;strokeColor=none;rounded=0;" parent="1" vertex="1">
          <mxGeometry x="180" y="975" width="90" height="30" as="geometry" />
        </mxCell>
        <mxCell id="Bto4KqDg77YO_STwbQzX-69" value="EMAIL" style="text;html=1;resizable=0;autosize=1;align=center;verticalAlign=middle;points=[];fillColor=none;strokeColor=none;rounded=0;" parent="1" vertex="1">
          <mxGeometry x="195" y="1020" width="60" height="30" as="geometry" />
        </mxCell>
        <mxCell id="Bto4KqDg77YO_STwbQzX-70" value="SET PASSWORD" style="text;html=1;resizable=0;autosize=1;align=center;verticalAlign=middle;points=[];fillColor=none;strokeColor=none;rounded=0;" parent="1" vertex="1">
          <mxGeometry x="165" y="1070" width="120" height="30" as="geometry" />
        </mxCell>
        <mxCell id="Bto4KqDg77YO_STwbQzX-71" value="CONFIRM PASSWORD" style="text;html=1;resizable=0;autosize=1;align=center;verticalAlign=middle;points=[];fillColor=none;strokeColor=none;rounded=0;" parent="1" vertex="1">
          <mxGeometry x="150" y="1120" width="150" height="30" as="geometry" />
        </mxCell>
        <mxCell id="Bto4KqDg77YO_STwbQzX-72" value="" style="whiteSpace=wrap;html=1;" parent="1" vertex="1">
          <mxGeometry x="285" y="980" width="206" height="20" as="geometry" />
        </mxCell>
        <mxCell id="Bto4KqDg77YO_STwbQzX-73" value="" style="whiteSpace=wrap;html=1;" parent="1" vertex="1">
          <mxGeometry x="285" y="1025" width="206" height="20" as="geometry" />
        </mxCell>
        <mxCell id="Bto4KqDg77YO_STwbQzX-74" value="" style="whiteSpace=wrap;html=1;" parent="1" vertex="1">
          <mxGeometry x="285" y="1070" width="206" height="20" as="geometry" />
        </mxCell>
        <mxCell id="Bto4KqDg77YO_STwbQzX-75" value="" style="whiteSpace=wrap;html=1;" parent="1" vertex="1">
          <mxGeometry x="295" y="1125" width="206" height="20" as="geometry" />
        </mxCell>
        <mxCell id="Bto4KqDg77YO_STwbQzX-76" value="SIGNUP" style="text;html=1;resizable=0;autosize=1;align=center;verticalAlign=middle;points=[];fillColor=none;strokeColor=none;rounded=0;" parent="1" vertex="1">
          <mxGeometry x="335" y="1164" width="70" height="30" as="geometry" />
        </mxCell>
        <mxCell id="Bto4KqDg77YO_STwbQzX-77" value="Registration Page" style="text;html=1;resizable=0;autosize=1;align=center;verticalAlign=middle;points=[];fillColor=none;strokeColor=none;rounded=0;" parent="1" vertex="1">
          <mxGeometry x="600" y="920" width="120" height="30" as="geometry" />
        </mxCell>
        <mxCell id="Bto4KqDg77YO_STwbQzX-78" value="" style="whiteSpace=wrap;html=1;" parent="1" vertex="1">
          <mxGeometry x="20" y="1284" width="801" height="326" as="geometry" />
        </mxCell>
        <mxCell id="Bto4KqDg77YO_STwbQzX-79" value="LOGIN PAGE" style="text;html=1;resizable=0;autosize=1;align=center;verticalAlign=middle;points=[];fillColor=none;strokeColor=none;rounded=0;" parent="1" vertex="1">
          <mxGeometry x="320" y="1350" width="100" height="30" as="geometry" />
        </mxCell>
        <mxCell id="Bto4KqDg77YO_STwbQzX-80" value="EMAIL" style="text;html=1;resizable=0;autosize=1;align=center;verticalAlign=middle;points=[];fillColor=none;strokeColor=none;rounded=0;" parent="1" vertex="1">
          <mxGeometry x="200" y="1410" width="60" height="30" as="geometry" />
        </mxCell>
        <mxCell id="Bto4KqDg77YO_STwbQzX-81" value="PASSWORD" style="text;html=1;resizable=0;autosize=1;align=center;verticalAlign=middle;points=[];fillColor=none;strokeColor=none;rounded=0;" parent="1" vertex="1">
          <mxGeometry x="190" y="1480" width="90" height="30" as="geometry" />
        </mxCell>
        <mxCell id="Bto4KqDg77YO_STwbQzX-82" value="" style="whiteSpace=wrap;html=1;" parent="1" vertex="1">
          <mxGeometry x="270" y="1415" width="210" height="20" as="geometry" />
        </mxCell>
        <mxCell id="Bto4KqDg77YO_STwbQzX-83" value="" style="whiteSpace=wrap;html=1;" parent="1" vertex="1">
          <mxGeometry x="275" y="1480" width="210" height="20" as="geometry" />
        </mxCell>
        <mxCell id="Bto4KqDg77YO_STwbQzX-84" value="LOGIN" style="text;html=1;resizable=0;autosize=1;align=center;verticalAlign=middle;points=[];fillColor=none;strokeColor=none;rounded=0;" parent="1" vertex="1">
          <mxGeometry x="325" y="1535" width="60" height="30" as="geometry" />
        </mxCell>
        <mxCell id="Bto4KqDg77YO_STwbQzX-86" value="&lt;b&gt;LOGOUT&lt;/b&gt;" style="text;html=1;resizable=0;autosize=1;align=center;verticalAlign=middle;points=[];fillColor=none;strokeColor=none;rounded=0;" parent="1" vertex="1">
          <mxGeometry x="295" y="65" width="70" height="30" as="geometry" />
        </mxCell>
        <mxCell id="Bto4KqDg77YO_STwbQzX-87" value="" style="whiteSpace=wrap;html=1;" parent="1" vertex="1">
          <mxGeometry x="19" y="1620" width="801" height="500" as="geometry" />
        </mxCell>
        <mxCell id="Bto4KqDg77YO_STwbQzX-88" value="Author Page" style="text;html=1;resizable=0;autosize=1;align=center;verticalAlign=middle;points=[];fillColor=none;strokeColor=none;rounded=0;" parent="1" vertex="1">
          <mxGeometry x="625" y="1635" width="90" height="30" as="geometry" />
        </mxCell>
        <mxCell id="Bto4KqDg77YO_STwbQzX-89" value="AUTHOR IMAGE" style="whiteSpace=wrap;html=1;" parent="1" vertex="1">
          <mxGeometry x="40" y="1665" width="200" height="205" as="geometry" />
        </mxCell>
        <mxCell id="Bto4KqDg77YO_STwbQzX-90" value="AUTHOR NAME" style="text;html=1;resizable=0;autosize=1;align=center;verticalAlign=middle;points=[];fillColor=none;strokeColor=none;rounded=0;" parent="1" vertex="1">
          <mxGeometry x="285" y="1680" width="110" height="30" as="geometry" />
        </mxCell>
        <mxCell id="Bto4KqDg77YO_STwbQzX-91" value="GENDER" style="text;html=1;resizable=0;autosize=1;align=center;verticalAlign=middle;points=[];fillColor=none;strokeColor=none;rounded=0;" parent="1" vertex="1">
          <mxGeometry x="305" y="1724" width="70" height="30" as="geometry" />
        </mxCell>
        <mxCell id="Bto4KqDg77YO_STwbQzX-92" value="NO OF BLOGS POSTED" style="text;html=1;resizable=0;autosize=1;align=center;verticalAlign=middle;points=[];fillColor=none;strokeColor=none;rounded=0;" parent="1" vertex="1">
          <mxGeometry x="250" y="1770" width="160" height="30" as="geometry" />
        </mxCell>
        <mxCell id="Bto4KqDg77YO_STwbQzX-93" value="NO OF SUBSCIRBERS" style="text;html=1;resizable=0;autosize=1;align=center;verticalAlign=middle;points=[];fillColor=none;strokeColor=none;rounded=0;" parent="1" vertex="1">
          <mxGeometry x="260" y="1820" width="150" height="30" as="geometry" />
        </mxCell>
        <mxCell id="Bto4KqDg77YO_STwbQzX-94" value="" style="whiteSpace=wrap;html=1;" parent="1" vertex="1">
          <mxGeometry x="60" y="1920" width="140" height="150" as="geometry" />
        </mxCell>
        <mxCell id="Bto4KqDg77YO_STwbQzX-95" value="200" style="text;html=1;resizable=0;autosize=1;align=center;verticalAlign=middle;points=[];fillColor=none;strokeColor=none;rounded=0;" parent="1" vertex="1">
          <mxGeometry x="80" y="1935" width="40" height="30" as="geometry" />
        </mxCell>
        <mxCell id="Bto4KqDg77YO_STwbQzX-96" value="REACT BLOGS" style="text;html=1;resizable=0;autosize=1;align=center;verticalAlign=middle;points=[];fillColor=none;strokeColor=none;rounded=0;" parent="1" vertex="1">
          <mxGeometry x="70" y="1990" width="110" height="30" as="geometry" />
        </mxCell>
        <mxCell id="Bto4KqDg77YO_STwbQzX-97" value="" style="whiteSpace=wrap;html=1;" parent="1" vertex="1">
          <mxGeometry x="222.5" y="1920" width="140" height="150" as="geometry" />
        </mxCell>
        <mxCell id="Bto4KqDg77YO_STwbQzX-98" value="HTML" style="text;html=1;resizable=0;autosize=1;align=center;verticalAlign=middle;points=[];fillColor=none;strokeColor=none;rounded=0;" parent="1" vertex="1">
          <mxGeometry x="245" y="1990" width="60" height="30" as="geometry" />
        </mxCell>
        <mxCell id="Bto4KqDg77YO_STwbQzX-99" value="200" style="text;html=1;resizable=0;autosize=1;align=center;verticalAlign=middle;points=[];fillColor=none;strokeColor=none;rounded=0;" parent="1" vertex="1">
          <mxGeometry x="250" y="1945" width="40" height="30" as="geometry" />
        </mxCell>
        <mxCell id="Bto4KqDg77YO_STwbQzX-100" value="" style="whiteSpace=wrap;html=1;" parent="1" vertex="1">
          <mxGeometry x="405" y="1920" width="140" height="150" as="geometry" />
        </mxCell>
        <mxCell id="Bto4KqDg77YO_STwbQzX-101" value="200" style="text;html=1;resizable=0;autosize=1;align=center;verticalAlign=middle;points=[];fillColor=none;strokeColor=none;rounded=0;" parent="1" vertex="1">
          <mxGeometry x="430" y="1945" width="40" height="30" as="geometry" />
        </mxCell>
        <mxCell id="Bto4KqDg77YO_STwbQzX-102" value="HTML" style="text;html=1;resizable=0;autosize=1;align=center;verticalAlign=middle;points=[];fillColor=none;strokeColor=none;rounded=0;" parent="1" vertex="1">
          <mxGeometry x="431" y="1990" width="60" height="30" as="geometry" />
        </mxCell>
        <mxCell id="Bto4KqDg77YO_STwbQzX-103" value="SUBSCRIBE" style="text;html=1;resizable=0;autosize=1;align=center;verticalAlign=middle;points=[];fillColor=none;strokeColor=none;rounded=0;" parent="1" vertex="1">
          <mxGeometry x="120" y="610" width="90" height="30" as="geometry" />
        </mxCell>
        <mxCell id="Bto4KqDg77YO_STwbQzX-104" value="LIKE" style="text;html=1;resizable=0;autosize=1;align=center;verticalAlign=middle;points=[];fillColor=none;strokeColor=none;rounded=0;" parent="1" vertex="1">
          <mxGeometry x="225" y="610" width="50" height="30" as="geometry" />
        </mxCell>
        <mxCell id="Bto4KqDg77YO_STwbQzX-105" value="" style="whiteSpace=wrap;html=1;" parent="1" vertex="1">
          <mxGeometry x="19" y="2140" width="801" height="420" as="geometry" />
        </mxCell>
        <mxCell id="Bto4KqDg77YO_STwbQzX-106" value="ACCOUNT HOLDER IMAGE" style="whiteSpace=wrap;html=1;" parent="1" vertex="1">
          <mxGeometry x="40" y="2170" width="200" height="205" as="geometry" />
        </mxCell>
        <mxCell id="Bto4KqDg77YO_STwbQzX-107" value="ACCOUNT NAME" style="text;html=1;resizable=0;autosize=1;align=center;verticalAlign=middle;points=[];fillColor=none;strokeColor=none;rounded=0;" parent="1" vertex="1">
          <mxGeometry x="265" y="2190" width="120" height="30" as="geometry" />
        </mxCell>
        <mxCell id="Bto4KqDg77YO_STwbQzX-108" value="EMAIL" style="text;html=1;resizable=0;autosize=1;align=center;verticalAlign=middle;points=[];fillColor=none;strokeColor=none;rounded=0;" parent="1" vertex="1">
          <mxGeometry x="295" y="2230" width="60" height="30" as="geometry" />
        </mxCell>
        <mxCell id="Bto4KqDg77YO_STwbQzX-109" value="PASSWORD" style="text;html=1;resizable=0;autosize=1;align=center;verticalAlign=middle;points=[];fillColor=none;strokeColor=none;rounded=0;" parent="1" vertex="1">
          <mxGeometry x="280" y="2300" width="90" height="30" as="geometry" />
        </mxCell>
        <mxCell id="Bto4KqDg77YO_STwbQzX-110" value="EDIT PROFILE" style="text;html=1;resizable=0;autosize=1;align=center;verticalAlign=middle;points=[];fillColor=none;strokeColor=none;rounded=0;" parent="1" vertex="1">
          <mxGeometry x="660" y="2170" width="110" height="30" as="geometry" />
        </mxCell>
        <mxCell id="Bto4KqDg77YO_STwbQzX-111" value="GENDER" style="text;html=1;resizable=0;autosize=1;align=center;verticalAlign=middle;points=[];fillColor=none;strokeColor=none;rounded=0;" parent="1" vertex="1">
          <mxGeometry x="290" y="2260" width="70" height="30" as="geometry" />
        </mxCell>
        <mxCell id="Bto4KqDg77YO_STwbQzX-112" value="NO OF BLOGS POSTED" style="text;html=1;resizable=0;autosize=1;align=center;verticalAlign=middle;points=[];fillColor=none;strokeColor=none;rounded=0;" parent="1" vertex="1">
          <mxGeometry x="271" y="2350" width="160" height="30" as="geometry" />
        </mxCell>
        <mxCell id="Bto4KqDg77YO_STwbQzX-113" value="NO OF SUBSCIRBERS" style="text;html=1;resizable=0;autosize=1;align=center;verticalAlign=middle;points=[];fillColor=none;strokeColor=none;rounded=0;" parent="1" vertex="1">
          <mxGeometry x="271" y="2400" width="150" height="30" as="geometry" />
        </mxCell>
        <mxCell id="Bto4KqDg77YO_STwbQzX-114" value="SETTINGS PAGE" style="text;html=1;resizable=0;autosize=1;align=center;verticalAlign=middle;points=[];fillColor=none;strokeColor=none;rounded=0;" parent="1" vertex="1">
          <mxGeometry x="660" y="2500" width="120" height="30" as="geometry" />
        </mxCell>
        <mxCell id="Bto4KqDg77YO_STwbQzX-115" value="" style="whiteSpace=wrap;html=1;" parent="1" vertex="1">
          <mxGeometry x="20" y="2590" width="810" height="620" as="geometry" />
        </mxCell>
        <mxCell id="Bto4KqDg77YO_STwbQzX-116" value="BLOG IMAGE" style="whiteSpace=wrap;html=1;" parent="1" vertex="1">
          <mxGeometry x="35" y="2610" width="785" height="110" as="geometry" />
        </mxCell>
        <mxCell id="Bto4KqDg77YO_STwbQzX-117" value="ENTER TITLE HERE" style="whiteSpace=wrap;html=1;" parent="1" vertex="1">
          <mxGeometry x="45" y="2740" width="775" height="60" as="geometry" />
        </mxCell>
        <mxCell id="Bto4KqDg77YO_STwbQzX-118" value="ENTER BLOG CONTENT HERE" style="whiteSpace=wrap;html=1;" parent="1" vertex="1">
          <mxGeometry x="40" y="2880" width="775" height="180" as="geometry" />
        </mxCell>
        <mxCell id="Bto4KqDg77YO_STwbQzX-119" value="UPLOAD IMAGE/DEFAULT IMAGE" style="text;html=1;resizable=0;autosize=1;align=center;verticalAlign=middle;points=[];fillColor=none;strokeColor=none;rounded=0;" parent="1" vertex="1">
          <mxGeometry x="585" y="2665" width="210" height="30" as="geometry" />
        </mxCell>
        <mxCell id="Bto4KqDg77YO_STwbQzX-120" value="ATTACH IMAGES" style="text;html=1;resizable=0;autosize=1;align=center;verticalAlign=middle;points=[];fillColor=none;strokeColor=none;rounded=0;" parent="1" vertex="1">
          <mxGeometry x="595" y="2923" width="120" height="30" as="geometry" />
        </mxCell>
        <mxCell id="Bto4KqDg77YO_STwbQzX-121" value="SELECT BLOG CATEGORY HERE" style="whiteSpace=wrap;html=1;" parent="1" vertex="1">
          <mxGeometry x="50" y="2810" width="230" height="50" as="geometry" />
        </mxCell>
        <mxCell id="Bto4KqDg77YO_STwbQzX-122" value="POST BLOG" style="text;html=1;resizable=0;autosize=1;align=center;verticalAlign=middle;points=[];fillColor=none;strokeColor=none;rounded=0;" parent="1" vertex="1">
          <mxGeometry x="349" y="3085" width="90" height="30" as="geometry" />
        </mxCell>
        <mxCell id="Bto4KqDg77YO_STwbQzX-123" value="CREATE BLOG PAGE" style="text;html=1;resizable=0;autosize=1;align=center;verticalAlign=middle;points=[];fillColor=none;strokeColor=none;rounded=0;" parent="1" vertex="1">
          <mxGeometry x="660" y="3160" width="140" height="30" as="geometry" />
        </mxCell>
      </root>
    </mxGraphModel>
  </diagram>
</mxfile>
